<?xml version="1.0" encoding="UTF-8"?>
<svg id="Layer_1" data-name="Layer 1" xmlns="http://www.w3.org/2000/svg" viewBox="0 0 129.66 137.55">
  <defs>
    <style>
      .cls-1 {
        fill: #020202;
        stroke-width: 0px;
      }
    </style>
  </defs>
  <path class="cls-1" d="M71.53,38.67c-12,1.35-24.71,7.17-30.08,18.62-5.82,12.37.21,23.06,7.76,32.86C81.46,66.73,114.92,39.4,126.96,0c3.21,10.64,4.43,23.17-1.38,33.17-6.14,10.58-16.61,19.35-25.88,27.07-20.43,17.04-42.82,31.5-64.3,47.14,2.48,3.07,8.06,7.79,8.14,12.02.07,3.6-3.03,4.79-6.17,3.77-4.95-1.61-3.67-4.19-8.78-.8-4.41,2.93-8.59,6.3-12.89,9.4-2.45,1.77-6.91,6.47-10.27,5.71-2.11-.48-5.65-5.71-5.44-7.74.36-3.51,7.89-7.54,10.52-9.65,4.45-3.56,8.93-7.1,13.32-10.73-1.82-2.88-5.57-7.37-1.45-10.2,3.71-2.54,6.75,1.94,9.08,4.32.9-.76,1.73-1.47,2.84-2.4-10.18-11.68-18.2-24.1-15.02-40.5-4.28,4.36-6.15,17.28-4.59,32.03-10.97-17.87-4.48-42.9,9.61-56.94,16.46-16.41,41.93-20.39,62.67-9.93-6.47.44-13.4.92-20.33,1.39,0,.34,0,.69-.01,1.03,8.28.29,15.65,3.25,22.61,7.01-14.32-.75-27.94-2.69-41.1,4.41,7.72-2.34,15.48-2.86,23.38-.9Z"/>
  <path class="cls-1" d="M41.33,108.52c12.95-8.89,25.68-17.63,38.41-26.37.21.21.42.43.63.64-.74.8-1.43,1.65-2.23,2.38-5.26,4.72-10.53,9.43-15.83,14.11-2.38,2.1-2.43,2.5.15,4.41,10.34,7.71,21.97,12.94,34.26,16.36,9.86,2.74,20.04,4.31,30.08,6.39.36.07.71.17,1.03.58-16.83,1.27-33.36-.68-49.71-4.83,12.33,6.83,25.79,10.24,40.14,12.93-23.69,1.41-62.89-11.02-76.91-26.61Z"/>
</svg>