<?xml version="1.0" encoding="UTF-8"?>
<svg id="Layer_1" data-name="Layer 1" xmlns="http://www.w3.org/2000/svg" viewBox="0 0 331.56 47.01">
  <defs>
    <style>
      .cls-1 {
        fill: #000;
        stroke: #000;
        stroke-miterlimit: 10;
        stroke-width: .4px;
      }
    </style>
  </defs>
  <path class="cls-1" d="M290.33.46c1.57,11.94,3.1,23.69,4.68,35.44.46,3.45.25,7.24,5.32,9.1-5.46,2.17-9.94,1.06-16.33,1.19,8.77-3.84,5.34-9.3,4.77-14.23-16.03-2.74-17.93-1.97-24.45,9.96.3,1.84,3.26.87,3.53,3.27-3.56,2.12-7.37.89-12.68.88,8.97-5.12,11.34-13.51,15.88-20.31,4.68-7.01,8.82-14.37,13.21-21.57,1.19-1.95,2.24-4.13,6.07-3.72ZM272.15,28.77h16.33c-.92-6.86-1.8-13.36-2.67-19.86-.44-.1-.89-.2-1.33-.29-3.93,6.42-7.86,12.85-12.33,20.16Z"/>
  <path class="cls-1" d="M36.38,3.11c-.53,2.91-1.49,5.69-3.33,8.87-2.31-2.79,1.41-7.21-3.21-8.59-3.07-.92-6.02-1.34-9.01-.35-3.54,1.16-5.83,3.62-6.54,7.38-.76,3.97,1.76,6.02,4.65,7.8,1.14.7,2.38,1.24,3.55,1.91,4.71,2.7,9.76,5.16,8.9,11.99-.79,6.28-5.95,12.51-12.33,13.82-6.24,1.28-12.54,1.06-18.81-2.05.8-3.8,2.14-7.13,4.37-10.98.73,1.36,1.1,1.78,1.18,2.24.4,2.57-2.82,5.76,1.07,7.68,4.52,2.23,9.22,2.8,13.74-.03,3.5-2.19,5.48-5.39,5.26-9.61-.14-2.59-2.17-3.97-4.12-5.22-1.61-1.03-3.36-1.87-5.01-2.84-4.08-2.4-8.05-5-7.55-10.55.55-6.05,3.75-10.41,9.32-12.87,5.42-2.4,11.13-1.91,17.89,1.41Z"/>
  <path class="cls-1" d="M215.05,41.73c-2.49,3.3-5.94,4.64-9.94,4.76-6.09.18-8.38-3.43-5.57-8.91,3.24-6.33,9.58-7.38,15.59-8.33,4.11-.65,5.56-2.73,5.95-6.36.23-2.1.92-4.49-1.17-5.84-2.26-1.46-4.78-.92-7.08.43-1.55.91-2.58,2.26-3.35,3.85-.74,1.52-1.42,3.86-3.55,2.63-2.42-1.4-.67-3.41.41-4.87,2.8-3.81,11.26-6.17,15.82-4.58,3.84,1.34,4.78,4.29,4.02,7.84-1.16,5.45-2.59,10.84-3.91,16.25-.74,3.03-1.64,6.15,4.37,4.75-6.15,4.56-7.21,4.35-11.78-1.44,2.92-3.26,3.8-7.1,3.76-11.71-4.35.98-8.43,1.06-11.74,3.59-2.61,1.99-4.36,4.76-2.73,7.93,1.53,2.96,4.48,2.2,7.12,1.28,1.25-.44,2.51-.84,3.77-1.26Z"/>
  <path class="cls-1" d="M321,45.06c-6.12,1.97-10.69,1.14-15.8.47,6.66-1.59,6.29-7.17,7.49-11.7,2.45-9.28,4.67-18.62,6.87-27.47-.56-2.17-3.25-1.17-3.39-4.04,4.47-1.95,9.21-.43,14.28-.35-7.05,2.48-6.69,8.73-8.07,13.98-1.8,6.87-3.42,13.8-5.23,20.67-.87,3.29-2.25,6.58,3.86,8.45Z"/>
  <path class="cls-1" d="M246.76,15.51c.22,1.6.41,2.99.64,4.71,3.1-2.2,5.55-4.71,8.95-5.67,1.94-.55,3.93-.96,5.22.94,1.4,2.05.14,3.56-1.52,4.79-7.45-3.22-12.98-.49-14.98,7.38-1.18,4.64-2.32,9.29-3.38,13.53.4,2.48,3.54,1.33,3.64,4.38-4.35,1.48-8.9.62-13.8.12,6.36-2.75,6.5-8.72,7.2-13.85.66-4.84,6.18-9.94-.07-15.03,2.4-2.4,5.17-1.58,8.09-1.3Z"/>
  <path class="cls-1" d="M115.78,18.5c-6.76,5.89-6.16,14.67-8.77,22.2-.83,2.4,2.21,2.36,2.38,4.56-3.78,2-7.83.85-12.27.84,7.69-6.61,6.92-15.89,9.07-24.02.84-3.2-1.53-5-4.88-4.54-2.03.28-4.01.99-5.87,1.47,6.43-6.11,15.25-7.21,16.75.59,1.51.75,2.33-1.13,3.69-.98l-.1-.12Z"/>
  <path class="cls-1" d="M115.88,18.61c.63-1.34,1.93-1.83,3.15-2.3,3.52-1.35,7.2-3.86,10.84-1.1,3.79,2.87,2.02,7.01,1.24,10.68-.83,3.94-1.76,7.88-2.93,11.73-.91,2.99-1.11,5.51,3.53,7.32-5.4,2.16-9.56,1.09-14.49,1.33,8.06-7.29,7.64-16.62,9.31-25.11.55-2.81-1.94-3.92-4.62-3.64-2.05.22-4.09.65-6.13.98,0,0,.1.12.1.12Z"/>
  <path class="cls-1" d="M155.86,18.56c2.48-1.42,3.41-2.11,4.46-2.51,3.36-1.29,6.96-3.54,10.3-.72,3.32,2.8,2.71,6.45,1.24,10.32-1.49,3.93-1.94,8.23-3.21,12.26-.89,2.82-1.04,5.14,2.4,6.86-4.46,2.84-8.53.93-13.46,1.8,8.23-7.5,7.71-16.86,9.53-25.32.5-2.32-1.38-3.93-4-3.72-1.86.15-3.71.52-7.26,1.05Z"/>
  <path class="cls-1" d="M192.79,44.86c-5.72,2.11-9.76,1.4-14.15,1.2,7.51-6.69,6.89-15.91,8.91-24.11.72-2.93-1.29-4.71-4.45-4.43-1.82.16-3.62.59-5.66.94,1.1-2.02,2.9-2.47,4.46-2.99,3.03-1.02,6.31-2.72,9.27-.09,2.9,2.58,1.94,6,1.22,9.18-1.03,4.49-2.01,9.01-3.37,13.41-.91,2.95-.69,5.15,3.78,6.89Z"/>
  <path class="cls-1" d="M57.01,42.85c-1.37,2.43-3.86,2.99-6.24,3.44-7.62,1.44-10.46-1.44-8.93-9.12.86-4.31,1.95-8.57,3.16-12.8.85-2.98,1.78-5.78-2.73-7.18,3.08-1.83,5.83-2.91,8.12-1.23,2.53,1.85.46,4.6-.02,6.89-.86,4.11-2.02,8.16-2.97,12.25-1.7,7.3-.02,9.06,7.45,7.93.74-.11,1.51-.04,2.26-.06l-.1-.12Z"/>
  <path class="cls-1" d="M144.5,15.69c2.92-.71,5.31-.78,8.19-.31,1.08,7.85-3.23,14.51-4.28,21.75-.41,2.85-2.57,5.9,2.72,7.61-5.14,2.53-9.3,1.26-13.86,1.08,6.16-3,6.55-8.89,7.32-14.21.72-5,5.71-10.14-.1-15.93Z"/>
  <path class="cls-1" d="M83.76,15.85c2.54-1.05,4.92-.94,7.89-.39,1.05,7.53-2.89,14.16-4.11,21.24-.53,3.06-1.98,6.06,2.24,8.34-4.8,2.16-8.95,1.01-13.52.77,6.21-2.95,6.59-8.83,7.36-14.15.71-4.98,5.63-10.11.14-15.8Z"/>
  <path class="cls-1" d="M57.12,42.96c6.05-6.12,9.57-22.29,5.24-25.86,2.3-1.83,4.95-2.61,7.32-1.36,2.74,1.44.94,4.11.46,6.19-1.56,6.69-3.27,13.35-4.76,19.39.58,3.11,3.27,1.16,4.48,3.14-3.58,1.46-7.01,5.02-9.54-1.17-.92-2.25-2.26.09-3.31-.44,0,0,.1.12.1.12Z"/>
</svg>